<?xml version="1.0" encoding="utf-8"?>
<!-- Generator: Adobe Illustrator 19.0.0, SVG Export Plug-In . SVG Version: 6.00 Build 0)  -->
<svg version="1.1" id="Layer_1" xmlns="http://www.w3.org/2000/svg" xmlns:xlink="http://www.w3.org/1999/xlink" x="0px" y="0px"
	 viewBox="0 0 612 207.2" style="enable-background:new 0 0 612 207.2;" xml:space="preserve">
<style type="text/css">
	.st0{fill:none;stroke:#000000;stroke-width:14;stroke-miterlimit:10;}
	.st1{fill:#53318D;}
</style>
<text id="XMLID_18_" transform="matrix(1 0 0 1 -886.6872 61.9462)" style="font-family:'Roboto-Light'; font-size:117.3978px;">Aber</text>
<text id="XMLID_17_" transform="matrix(1 0 0 1 -892.7286 196.6288)" style="font-family:'Roboto-Black'; font-size:158.5738px;">Fitness</text>
<circle id="XMLID_4_" cx="-913.8" cy="-505.5" r="9"/>
<circle id="XMLID_5_" cx="-913.8" cy="-472.4" r="9"/>
<circle id="XMLID_6_" cx="-913.8" cy="-439.7" r="9"/>
<path id="XMLID_7_" d="M-808.9-499.3h-84.5c-2.4,0-4.3-1.9-4.3-4.3v-3.9c0-2.4,1.9-4.3,4.3-4.3h84.5c2.4,0,4.3,1.9,4.3,4.3v3.9
	C-804.7-501.2-806.6-499.3-808.9-499.3z"/>
<path id="XMLID_8_" d="M-808.9-466.2h-84.5c-2.4,0-4.3-1.9-4.3-4.3v-3.9c0-2.4,1.9-4.3,4.3-4.3h84.5c2.4,0,4.3,1.9,4.3,4.3v3.9
	C-804.7-468.1-806.6-466.2-808.9-466.2z"/>
<path id="XMLID_9_" d="M-809.8-433.5h-83.6c-2.4,0-4.3-1.9-4.3-4.3v-3.9c0-2.4,1.9-4.3,4.3-4.3h83.6c2.4,0,4.3,1.9,4.3,4.3v3.9
	C-805.5-435.4-807.5-433.5-809.8-433.5z"/>
<text id="XMLID_33_" transform="matrix(1 0 0 1 -2323.292 -186.7285)" style="font-family:'Roboto-Light'; font-size:77.7713px;">Aber</text>
<text id="XMLID_32_" transform="matrix(1 0 0 1 -2327.2937 -97.5065)" style="font-family:'Roboto-Black'; font-size:105.0488px;">Fit</text>
<text id="XMLID_30_" transform="matrix(1 0 0 1 -2327.2935 -27.6256)" style="font-family:'Roboto-Black'; font-size:105.0488px;">ness</text>
<g id="XMLID_28_">
	<path id="XMLID_29_" class="st0" d="M-1983.7-153.6l-5.7,5.7l-56.5,56.5l-56.5-56.5l-5.7-5.7c-7.8-7.8-11.7-18-11.7-28.2
		c0-10.2,3.9-20.4,11.7-28.2c15.6-15.6,40.9-15.6,56.5,0l5.7,5.7l5.7-5.7c7.8-7.8,18-11.7,28.2-11.7c10.2,0,20.4,3.9,28.2,11.7
		C-1968.1-194.5-1968.1-169.2-1983.7-153.6z"/>
</g>
<line id="XMLID_27_" class="st0" x1="-2045.8" y1="-156.6" x2="-1921.5" y2="-156.6"/>
<path id="XMLID_26_" d="M-1872.9-177.4h11.3c1.6,0,2.9,1.3,2.9,2.9v35.6c0,1.6-1.3,2.9-2.9,2.9h-11.3c-1.6,0-2.9-1.3-2.9-2.9v-35.6
	C-1875.8-176-1874.5-177.4-1872.9-177.4z"/>
<path id="XMLID_25_" d="M-1891.6-185h11.3c1.6,0,2.9,1.3,2.9,2.9v50.9c0,1.6-1.3,2.9-2.9,2.9h-11.3c-1.6,0-2.9-1.3-2.9-2.9v-50.9
	C-1894.5-183.7-1893.2-185-1891.6-185z"/>
<path id="XMLID_24_" d="M-1910.6-192.5h11.3c1.6,0,2.9,1.3,2.9,2.9v66c0,1.6-1.3,2.9-2.9,2.9h-11.3c-1.6,0-2.9-1.3-2.9-2.9v-66
	C-1913.5-191.2-1912.2-192.5-1910.6-192.5z"/>
<line id="XMLID_19_" class="st0" x1="-917.6" y1="-865.7" x2="-851.2" y2="-865.7"/>
<path id="XMLID_3_" d="M-817.4-881h6.8c1.6,0,2.9,1.3,2.9,2.9v24.8c0,1.6-1.3,2.9-2.9,2.9h-6.8c-1.6,0-2.9-1.3-2.9-2.9v-24.8
	C-820.4-879.7-819-881-817.4-881z"/>
<path id="XMLID_2_" d="M-832-886.7h6.8c1.6,0,2.9,1.3,2.9,2.9v36.1c0,1.6-1.3,2.9-2.9,2.9h-6.8c-1.6,0-2.9-1.3-2.9-2.9v-36.1
	C-834.9-885.4-833.6-886.7-832-886.7z"/>
<path id="XMLID_1_" d="M-846.7-892.2h6.8c1.6,0,2.9,1.3,2.9,2.9v47.2c0,1.6-1.3,2.9-2.9,2.9h-6.8c-1.6,0-2.9-1.3-2.9-2.9v-47.2
	C-849.7-890.9-848.3-892.2-846.7-892.2z"/>
<path id="XMLID_22_" d="M-951.2-850.4h-6.8c-1.6,0-2.9-1.3-2.9-2.9v-24.8c0-1.6,1.3-2.9,2.9-2.9h6.8c1.6,0,2.9,1.3,2.9,2.9v24.8
	C-948.2-851.7-949.5-850.4-951.2-850.4z"/>
<path id="XMLID_21_" d="M-936.6-844.8h-6.8c-1.6,0-2.9-1.3-2.9-2.9v-36.1c0-1.6,1.3-2.9,2.9-2.9h6.8c1.6,0,2.9,1.3,2.9,2.9v36.1
	C-933.7-846.1-935-844.8-936.6-844.8z"/>
<path id="XMLID_20_" d="M-921.8-839.2h-6.8c-1.6,0-2.9-1.3-2.9-2.9v-47.2c0-1.6,1.3-2.9,2.9-2.9h6.8c1.6,0,2.9,1.3,2.9,2.9v47.2
	C-918.9-840.5-920.2-839.2-921.8-839.2z"/>
<g id="XMLID_38_">
	<path id="XMLID_39_" class="st0" d="M-719.1-472l-5.7,5.7l-56.5,56.5l-56.5-56.5l-5.7-5.7c-7.8-7.8-11.7-18-11.7-28.2
		c0-10.2,3.9-20.4,11.7-28.2c15.6-15.6,40.9-15.6,56.5,0l5.7,5.7l5.7-5.7c7.8-7.8,18-11.7,28.2-11.7s20.4,3.9,28.2,11.7
		C-703.5-512.8-703.5-487.6-719.1-472z"/>
</g>
<text id="XMLID_41_" transform="matrix(1 0 0 1 -693.178 -481.3895)" style="font-family:'Roboto-Light'; font-size:77.7713px;">Aber</text>
<text id="XMLID_40_" transform="matrix(1 0 0 1 -699.5714 -397.5501)" style="font-family:'Roboto-Black'; font-size:105.0488px;">Fitness</text>
<path id="XMLID_49_" d="M-740.1-269.5h23.6c1.6,0,2.9,1.3,2.9,2.9v62.2c0,1.6-1.3,2.9-2.9,2.9h-23.6c-1.6,0-2.9-1.3-2.9-2.9v-62.2
	C-743.1-268.2-741.7-269.5-740.1-269.5z"/>
<path id="XMLID_48_" d="M-776.1-288.1h23.6c1.6,0,2.9,1.3,2.9,2.9v109.5c0,1.6-1.3,2.9-2.9,2.9h-23.6c-1.6,0-2.9-1.3-2.9-2.9v-109.5
	C-779-286.8-777.7-288.1-776.1-288.1z"/>
<path id="XMLID_47_" d="M-788-273.6h-23.6c-1.6,0-2.9,1.3-2.9,2.9v127.5c0,1.6,1.3,2.9,2.9,2.9h23.6c1.6,0,2.9-1.3,2.9-2.9v-127.5
	C-785.1-272.3-786.4-273.6-788-273.6z"/>
<path id="XMLID_46_" d="M-859.5-269.5h-23.6c-1.6,0-2.9,1.3-2.9,2.9v62.2c0,1.6,1.3,2.9,2.9,2.9h23.6c1.6,0,2.9-1.3,2.9-2.9v-62.2
	C-856.5-268.2-857.9-269.5-859.5-269.5z"/>
<path id="XMLID_45_" d="M-823.5-288.1h-23.6c-1.6,0-2.9,1.3-2.9,2.9v109.5c0,1.6,1.3,2.9,2.9,2.9h23.6c1.6,0,2.9-1.3,2.9-2.9v-109.5
	C-820.6-286.8-821.9-288.1-823.5-288.1z"/>
<path id="XMLID_44_" d="M-811.6-273.6h23.6c1.6,0,2.9,1.3,2.9,2.9v127.5c0,1.6-1.3,2.9-2.9,2.9h-23.6c-1.6,0-2.9-1.3-2.9-2.9v-127.5
	C-814.5-272.3-813.2-273.6-811.6-273.6z"/>
<circle id="XMLID_53_" cx="-1803.4" cy="-712.4" r="9"/>
<circle id="XMLID_52_" cx="-1803.4" cy="-679.2" r="9"/>
<circle id="XMLID_51_" cx="-1803.4" cy="-646.6" r="9"/>
<path id="XMLID_50_" d="M-1698.6-706.1h-84.5c-2.4,0-4.3-1.9-4.3-4.3v-3.9c0-2.4,1.9-4.3,4.3-4.3h84.5c2.4,0,4.3,1.9,4.3,4.3v3.9
	C-1694.3-708-1696.2-706.1-1698.6-706.1z"/>
<path id="XMLID_37_" d="M-1698.6-673h-84.5c-2.4,0-4.3-1.9-4.3-4.3v-3.9c0-2.4,1.9-4.3,4.3-4.3h84.5c2.4,0,4.3,1.9,4.3,4.3v3.9
	C-1694.3-674.9-1696.2-673-1698.6-673z"/>
<path id="XMLID_36_" d="M-1698.6-640.3h-84.5c-2.4,0-4.3-1.9-4.3-4.3v-3.9c0-2.4,1.9-4.3,4.3-4.3h84.5c2.4,0,4.3,1.9,4.3,4.3v3.9
	C-1694.3-642.2-1696.2-640.3-1698.6-640.3z"/>
<g id="XMLID_34_">
	<path id="XMLID_35_" class="st0" d="M-1608.8-678.8l-5.7,5.7l-56.5,56.5l-56.5-56.5l-5.7-5.7c-7.8-7.8-11.7-18-11.7-28.2
		c0-10.2,3.9-20.4,11.7-28.2c15.6-15.6,40.9-15.6,56.5,0l5.7,5.7l5.7-5.7c7.8-7.8,18-11.7,28.2-11.7s20.4,3.9,28.2,11.7
		C-1593.2-719.7-1593.2-694.4-1608.8-678.8z"/>
</g>
<text id="XMLID_31_" transform="matrix(1 0 0 1 -1583.8756 -688.2063)" style="font-family:'Roboto-Light'; font-size:77.7713px;">Aber</text>
<text id="XMLID_23_" transform="matrix(1 0 0 1 -1597.0795 -603.9415)" style="font-family:'Roboto-Black'; font-size:105.0488px;">Fitness</text>
<text id="XMLID_43_" transform="matrix(1 0 0 1 -696.1055 -230.3884)" style="font-family:'Roboto-Light'; font-size:79.2175px;">Aber</text>
<text id="XMLID_42_" transform="matrix(1 0 0 1 -704.125 -140.3059)" style="font-family:'Roboto-Black'; font-size:107.0021px;">Fitness</text>
<path id="XMLID_60_" d="M-396.8,8.3h12.7c1.6,0,2.9,1.3,2.9,2.9v38.9c0,1.6-1.3,2.9-2.9,2.9h-12.7c-1.6,0-2.9-1.3-2.9-2.9V11.2
	C-399.8,9.6-398.4,8.3-396.8,8.3z"/>
<path id="XMLID_59_" d="M-418,0l12.7,0c1.6,0,2.9,1.3,2.9,2.9v55.4c0,1.6-1.3,2.9-2.9,2.9H-418c-1.6,0-2.9-1.3-2.9-2.9V2.9
	C-420.9,1.3-419.6,0-418,0z"/>
<path id="XMLID_58_" d="M-439.1-8.1h12.7c1.6,0,2.9,1.3,2.9,2.9v71.7c0,1.6-1.3,2.9-2.9,2.9h-12.7c-1.6,0-2.9-1.3-2.9-2.9V-5.2
	C-442-6.8-440.7-8.1-439.1-8.1z"/>
<path id="XMLID_16_" d="M-617.6-880.4h6.4c1.6,0,2.9,1.3,2.9,2.9v23.8c0,1.6-1.3,2.9-2.9,2.9h-6.4c-1.6,0-2.9-1.3-2.9-2.9v-23.8
	C-620.5-879.1-619.2-880.4-617.6-880.4z"/>
<path id="XMLID_15_" d="M-631.6-885.9h6.4c1.6,0,2.9,1.3,2.9,2.9v34.7c0,1.6-1.3,2.9-2.9,2.9h-6.4c-1.6,0-2.9-1.3-2.9-2.9v-34.7
	C-634.5-884.6-633.2-885.9-631.6-885.9z"/>
<path id="XMLID_14_" d="M-645.6-891.3h6.4c1.6,0,2.9,1.3,2.9,2.9v45.5c0,1.6-1.3,2.9-2.9,2.9h-6.4c-1.6,0-2.9-1.3-2.9-2.9v-45.5
	C-648.5-889.9-647.2-891.3-645.6-891.3z"/>
<path id="XMLID_13_" d="M-710.2-871.7h53.5c2.6,0,4.6,2.1,4.6,4.6v3c0,2.6-2.1,4.6-4.6,4.6h-53.5c-2.6,0-4.6-2.1-4.6-4.6v-3
	C-714.8-869.6-712.7-871.7-710.2-871.7z"/>
<path id="XMLID_12_" d="M-749.2-851h-6.4c-1.6,0-2.9-1.3-2.9-2.9v-23.8c0-1.6,1.3-2.9,2.9-2.9h6.4c1.6,0,2.9,1.3,2.9,2.9v23.8
	C-746.3-852.4-747.6-851-749.2-851z"/>
<path id="XMLID_11_" d="M-735.2-845.6h-6.4c-1.6,0-2.9-1.3-2.9-2.9v-34.7c0-1.6,1.3-2.9,2.9-2.9h6.4c1.6,0,2.9,1.3,2.9,2.9v34.7
	C-732.3-846.9-733.6-845.6-735.2-845.6z"/>
<path id="XMLID_10_" d="M-721.2-840.2h-6.4c-1.6,0-2.9-1.3-2.9-2.9v-45.5c0-1.6,1.3-2.9,2.9-2.9h6.4c1.6,0,2.9,1.3,2.9,2.9v45.5
	C-718.3-841.5-719.6-840.2-721.2-840.2z"/>
<path id="XMLID_61_" d="M-616.7,53h-12.7c-1.6,0-2.9-1.3-2.9-2.9V11.2c0-1.6,1.3-2.9,2.9-2.9h12.7c1.6,0,2.9,1.3,2.9,2.9v38.9
	C-613.8,51.7-615.1,53-616.7,53z"/>
<path id="XMLID_56_" d="M-595.6,61.3h-12.7c-1.6,0-2.9-1.3-2.9-2.9V2.9c0-1.6,1.3-2.9,2.9-2.9l12.7,0c1.6,0,2.9,1.3,2.9,2.9v55.4
	C-592.7,60-594,61.3-595.6,61.3z"/>
<path id="XMLID_55_" d="M-574.5,69.4h-12.7c-1.6,0-2.9-1.3-2.9-2.9V-5.2c0-1.6,1.3-2.9,2.9-2.9h12.7c1.6,0,2.9,1.3,2.9,2.9v71.7
	C-571.5,68.1-572.8,69.4-574.5,69.4z"/>
<path id="XMLID_70_" d="M-447.3,28.3v4.6c0,3.8-3.1,7-7,7h-105.1c-3.8,0-7-3.1-7-7v-4.6c0-3.8,3.1-7,7-7h105.1
	C-450.4,21.4-447.3,24.5-447.3,28.3z"/>
<circle id="XMLID_69_" class="st1" cx="38.1" cy="69.6" r="9"/>
<circle id="XMLID_68_" class="st1" cx="38.1" cy="102.8" r="9"/>
<circle id="XMLID_67_" class="st1" cx="38.1" cy="135.4" r="9"/>
<path id="XMLID_66_" d="M142.9,75.9H58.5c-2.4,0-4.3-1.9-4.3-4.3v-3.9c0-2.4,1.9-4.3,4.3-4.3h84.5c2.4,0,4.3,1.9,4.3,4.3v3.9
	C147.2,74,145.3,75.9,142.9,75.9z"/>
<path id="XMLID_65_" d="M142.9,109H58.5c-2.4,0-4.3-1.9-4.3-4.3v-3.9c0-2.4,1.9-4.3,4.3-4.3h84.5c2.4,0,4.3,1.9,4.3,4.3v3.9
	C147.2,107.1,145.3,109,142.9,109z"/>
<path id="XMLID_64_" d="M142,141.7H58.5c-2.4,0-4.3-1.9-4.3-4.3v-3.9c0-2.4,1.9-4.3,4.3-4.3H142c2.4,0,4.3,1.9,4.3,4.3v3.9
	C146.3,139.8,144.4,141.7,142,141.7z"/>
<g id="XMLID_62_">
	<g id="XMLID_130_">
		<g id="XMLID_131_">
			<path id="XMLID_132_" d="M170.6,175.2l-67.1-67.1C94.7,99.3,89.8,87.5,89.8,75s4.9-24.3,13.7-33.2c18.3-18.3,48.1-18.3,66.4,0
				l0.7,0.7l0.7-0.7C180.2,32.9,192,28,204.5,28c12.5,0,24.3,4.9,33.2,13.7c18.3,18.3,18.3,48.1,0,66.4L170.6,175.2z M136.7,42.1
				c-8.4,0-16.9,3.2-23.3,9.6c-6.2,6.2-9.6,14.5-9.6,23.3s3.4,17.1,9.6,23.3l57.2,57.2l57.2-57.2c6.2-6.2,9.6-14.5,9.6-23.3
				c0-8.8-3.4-17.1-9.6-23.3c-6.2-6.2-14.5-9.6-23.3-9.6c-8.8,0-17.1,3.4-23.3,9.6l-10.6,10.6L160,51.7
				C153.6,45.3,145.2,42.1,136.7,42.1z"/>
		</g>
	</g>
</g>
<g id="XMLID_57_">
	<path id="XMLID_147_" d="M294.1,71.3H269l-5.7,15.5h-4.9l20.9-55.3h4.4l20.9,55.3h-4.9L294.1,71.3z M270.4,67.4h22.2l-11.1-30.1
		L270.4,67.4z"/>
	<path id="XMLID_150_" d="M344.8,66.8c0,6.4-1.4,11.5-4.3,15.2c-2.8,3.8-6.6,5.6-11.4,5.6c-5.7,0-10.1-2.1-13-6.4l-0.2,5.6h-4.3
		V28.6h4.5v23.2c2.9-4.5,7.2-6.7,12.8-6.7c4.9,0,8.7,1.9,11.5,5.6c2.8,3.7,4.2,8.9,4.2,15.5V66.8z M340.3,66c0-5.4-1.1-9.6-3.2-12.6
		c-2.1-2.9-5.1-4.4-8.9-4.4c-2.9,0-5.4,0.7-7.4,2.1c-2,1.4-3.6,3.5-4.6,6.3v18.5c2.3,5.2,6.3,7.7,12.1,7.7c3.7,0,6.7-1.5,8.8-4.4
		C339.2,76.3,340.3,71.9,340.3,66z"/>
	<path id="XMLID_153_" d="M370.8,87.6c-3.5,0-6.7-0.9-9.5-2.6c-2.8-1.7-5-4.1-6.6-7.2c-1.6-3.1-2.4-6.5-2.4-10.3v-1.6
		c0-3.9,0.8-7.5,2.3-10.7c1.5-3.2,3.7-5.7,6.4-7.5s5.7-2.7,8.9-2.7c5,0,8.9,1.7,11.9,5.1c2.9,3.4,4.4,8.1,4.4,14v2.5h-29.3v0.9
		c0,4.7,1.3,8.5,4,11.6c2.7,3.1,6,4.7,10.1,4.7c2.4,0,4.6-0.4,6.4-1.3s3.6-2.3,5.1-4.3l2.8,2.2C382,85.2,377.1,87.6,370.8,87.6z
		 M369.9,48.9c-3.4,0-6.3,1.3-8.6,3.8c-2.3,2.5-3.8,5.9-4.3,10.1h24.6v-0.5c-0.1-3.9-1.3-7.2-3.4-9.6
		C376.1,50.1,373.4,48.9,369.9,48.9z"/>
	<path id="XMLID_156_" d="M414,49.7c-1-0.2-2-0.3-3.1-0.3c-2.8,0-5.2,0.8-7.2,2.4c-2,1.6-3.4,3.9-4.2,6.9v28.2H395V45.8h4.4l0.1,6.5
		c2.4-4.9,6.3-7.3,11.6-7.3c1.3,0,2.3,0.2,3,0.5L414,49.7z"/>
</g>
<g id="XMLID_54_">
	<path id="XMLID_126_" d="M305,145.4h-29v29.8h-18v-74.7h50v13.9h-32v17.2h29V145.4z"/>
	<path id="XMLID_128_" d="M314.5,105.4c0-2.5,0.9-4.5,2.7-6.1c1.8-1.6,4.1-2.4,6.9-2.4c2.8,0,5.1,0.8,6.9,2.4
		c1.8,1.6,2.7,3.6,2.7,6.1s-0.9,4.5-2.7,6.1c-1.8,1.6-4.1,2.4-6.9,2.4c-2.8,0-5.1-0.8-6.9-2.4C315.4,109.9,314.5,107.8,314.5,105.4z
		 M332.8,175.2h-17.3v-55.5h17.3V175.2z"/>
	<path id="XMLID_136_" d="M363.6,105.9v13.8h9.1v12h-9.1v25.4c0,2.1,0.4,3.5,1.1,4.4c0.8,0.8,2.2,1.2,4.5,1.2c1.7,0,3.1-0.1,4.3-0.3
		v12.4c-3.1,1-6.4,1.5-9.7,1.5c-6,0-10.3-1.4-13.2-4.2c-2.8-2.8-4.3-7.1-4.3-12.8v-27.5h-7.1v-12h7.1v-13.8H363.6z"/>
	<path id="XMLID_138_" d="M395.4,119.7l0.6,6.5c3.8-5,9.1-7.5,15.8-7.5c5.8,0,10.1,1.7,13,5.2c2.9,3.5,4.3,8.7,4.4,15.6v35.8h-17.3
		v-35c0-2.8-0.6-4.9-1.7-6.2c-1.1-1.3-3.2-2-6.2-2c-3.4,0-5.9,1.3-7.5,4v39.2h-17.3v-55.5H395.4z"/>
	<path id="XMLID_140_" d="M465.6,176.2c-8.5,0-15.4-2.5-20.7-7.6c-5.3-5.1-7.9-11.7-7.9-19.8v-1.4c0-5.7,1.1-10.7,3.2-15
		c2.1-4.3,5.2-7.7,9.2-10.1s8.8-3.6,14.4-3.6c7.8,0,14,2.4,18.5,7.3c4.5,4.8,6.8,11.6,6.8,20.2v6.7h-34.4c0.6,3.1,2,5.6,4.1,7.3
		c2.1,1.8,4.8,2.7,8.1,2.7c5.5,0,9.7-1.9,12.8-5.7l7.9,9.3c-2.2,3-5.2,5.3-9.2,7.1C474.4,175.3,470.2,176.2,465.6,176.2z M463.7,132
		c-5.1,0-8.1,3.4-9,10.1h17.4v-1.3c0.1-2.8-0.6-4.9-2.1-6.4C468.5,132.8,466.4,132,463.7,132z"/>
	<path id="XMLID_143_" d="M525,159.6c0-1.5-0.8-2.7-2.3-3.5c-1.5-0.9-4.5-1.8-8.8-2.8c-4.3-1-7.9-2.2-10.7-3.8s-4.9-3.4-6.4-5.7
		c-1.5-2.2-2.2-4.8-2.2-7.6c0-5.1,2.1-9.3,6.3-12.6s9.7-5,16.5-5c7.3,0,13.2,1.7,17.6,5c4.4,3.3,6.7,7.7,6.7,13.1h-17.3
		c0-4.4-2.3-6.7-7-6.7c-1.8,0-3.3,0.5-4.6,1.5c-1.2,1-1.8,2.3-1.8,3.8c0,1.5,0.8,2.8,2.3,3.7c1.5,1,3.9,1.7,7.2,2.4s6.2,1.4,8.7,2.2
		c8.3,2.9,12.5,8,12.5,15.4c0,5.1-2.2,9.2-6.7,12.4c-4.5,3.2-10.3,4.8-17.5,4.8c-4.8,0-9-0.9-12.7-2.6c-3.7-1.7-6.6-4-8.7-7
		c-2.1-2.9-3.1-6-3.1-9.3h16.2c0.1,2.6,0.9,4.4,2.6,5.6c1.6,1.2,3.7,1.8,6.3,1.8c2.4,0,4.1-0.5,5.3-1.4
		C524.4,162.4,525,161.1,525,159.6z"/>
	<path id="XMLID_145_" d="M578.8,159.6c0-1.5-0.8-2.7-2.3-3.5c-1.5-0.9-4.5-1.8-8.8-2.8c-4.3-1-7.9-2.2-10.7-3.8s-4.9-3.4-6.4-5.7
		c-1.5-2.2-2.2-4.8-2.2-7.6c0-5.1,2.1-9.3,6.3-12.6s9.7-5,16.5-5c7.3,0,13.2,1.7,17.6,5c4.4,3.3,6.7,7.7,6.7,13.1h-17.3
		c0-4.4-2.3-6.7-7-6.7c-1.8,0-3.3,0.5-4.6,1.5c-1.2,1-1.8,2.3-1.8,3.8c0,1.5,0.8,2.8,2.3,3.7c1.5,1,3.9,1.7,7.2,2.4s6.2,1.4,8.7,2.2
		c8.3,2.9,12.5,8,12.5,15.4c0,5.1-2.2,9.2-6.7,12.4c-4.5,3.2-10.3,4.8-17.5,4.8c-4.8,0-9-0.9-12.7-2.6c-3.7-1.7-6.6-4-8.7-7
		c-2.1-2.9-3.1-6-3.1-9.3h16.2c0.1,2.6,0.9,4.4,2.6,5.6c1.6,1.2,3.7,1.8,6.3,1.8c2.4,0,4.1-0.5,5.3-1.4
		C578.2,162.4,578.8,161.1,578.8,159.6z"/>
</g>
</svg>
